<svg width="30" height="30" viewBox="0 0 30 30" fill="none" xmlns="http://www.w3.org/2000/svg">
<path d="M2 8V6C2 3.79086 3.79086 2 6 2H8C10.2091 2 12 3.79086 12 6V8C12 10.2091 10.2091 12 8 12H6C3.79086 12 2 10.2091 2 8Z" stroke="white" stroke-width="4"/>
<path d="M18 8V6C18 3.79086 19.7909 2 22 2H24C26.2091 2 28 3.79086 28 6V8C28 10.2091 26.2091 12 24 12H22C19.7909 12 18 10.2091 18 8Z" stroke="white" stroke-width="4"/>
<path d="M23 18H22C19.7909 18 18 19.7909 18 22V23" stroke="white" stroke-width="4"/>
<path d="M23 28H24C26.2091 28 28 26.2091 28 24V23" stroke="white" stroke-width="4"/>
<path d="M2 24V22C2 19.7909 3.79086 18 6 18H8C10.2091 18 12 19.7909 12 22V24C12 26.2091 10.2091 28 8 28H6C3.79086 28 2 26.2091 2 24Z" stroke="white" stroke-width="4"/>
</svg>
